<?xml version="1.0" encoding="UTF-8"?>
<svg width="24px" height="24px" viewBox="0 0 24 24" version="1.1" xmlns="http://www.w3.org/2000/svg" xmlns:xlink="http://www.w3.org/1999/xlink">
    <!-- Generator: Sketch 51.2 (57519) - http://www.bohemiancoding.com/sketch -->
    <title>icons/functional/search</title>
    <desc>Created with Sketch.</desc>
    <defs>
        <path d="M19.3332183,10.4311373 C19.3332183,5.49936681 15.3422812,1.5 10.4195394,1.5 C5.49093713,1.5 1.5,5.49936681 1.5,10.4311373 C1.5,15.3629078 5.49093713,19.3622746 10.413679,19.3622746 C12.2011031,19.3622746 13.8654587,18.834499 15.2602355,17.9314161 L15.6646036,17.6499358 L19.936081,21.924159 C20.4811457,22.4695741 21.3651543,22.4698582 21.9105694,21.9247935 C21.9136854,21.9216794 21.9167867,21.9185506 21.9198732,21.9154072 L21.9198732,21.9154072 C22.4668361,21.3583482 22.4631424,20.4647114 21.9115931,19.9121929 L17.6454211,15.638524 L17.9384415,15.2221676 C18.8175025,13.8382225 19.3332183,12.1962538 19.3332183,10.4311373 Z M14.8093226,6.28354969 C15.9481149,7.42296814 16.5752033,8.93884643 16.5752033,10.5500945 C16.5752033,12.1613427 15.9481149,13.6772209 14.8093226,14.8166394 C13.6705302,15.9560578 12.1554848,16.5834909 10.545122,16.5834909 C8.93475915,16.5834909 7.41971376,15.9560578 6.28092137,14.8166394 C5.14212898,13.6772209 4.51504065,12.1613427 4.51504065,10.5500945 C4.51504065,8.93884643 5.14212898,7.42296814 6.28092137,6.28354969 C7.41971376,5.14413125 8.93475915,4.51669818 10.545122,4.51669818 C12.1554848,4.51669818 13.6705302,5.14413125 14.8093226,6.28354969 L14.8093226,6.28354969 Z" id="path-1"></path>
    </defs>
    <g id="icons/functional/search" stroke="none" stroke-width="1" fill="none" fill-rule="evenodd">
        <mask id="mask-2" fill="white">
            <use xlink:href="#path-1"></use>
        </mask>
        <use id="icon-search" fill="#000000" xlink:href="#path-1"></use>
        <g id="colors/grey-regular" mask="url(#mask-2)" fill="#535B62">
            <rect id="Rectangle-12" x="0" y="0" width="24" height="24"></rect>
        </g>
    </g>
</svg>